<?xml version="1.0" encoding="UTF-8" standalone="no"?>
<svg
   version="1.1"
   id="symrise-logo"
   x="0px"
   y="0px"
   viewBox="-400 200 1582.9999 471.4"
   xml:space="preserve"
   width="1583"
   height="471.39999"
   xmlns="http://www.w3.org/2000/svg"
   xmlns:svg="http://www.w3.org/2000/svg"><defs
   id="defs2" />
	<style
   type="text/css"
   id="style1">
		.symrise-red {fill:#C51718;}
	</style>
	<desc
   id="desc1">Symrise AG Logo</desc>
    
    <path
   class="symrise-red"
   d="m 1183,425.4 c 0,-58.8 -26.4,-118 -103.2,-118 -76.4,0 -120.8,58.8 -120.8,139 0,81.8 41.2,137.8 130.2,137.8 30.8,0 61,-7.6 77.4,-15.4 v -39 c -18.6,9.4 -44,16.4 -75.8,16.4 -59.8,0 -83,-40.6 -83.4,-100 H 1182 c 0.4,-6.6 1,-13.8 1,-20.8 z m -48.4,-11.6 h -125.2 c 6,-50.6 35.2,-69.2 69.2,-69.2 37.4,0 56,32.4 56,66.4 z m -335,-34.6 c 0,-22 16,-34.6 48.8,-34.6 25.8,0 51,8.2 64.2,14.2 v -39.6 c -12.6,-5.4 -37.8,-12 -66,-12 -55.4,0 -92.8,23.6 -92.8,75.8 0,42.2 28.6,63.2 72.6,78 37.4,13.2 55,19.2 55,45 0,28 -19.2,40.6 -56,40.6 -24.8,0 -56,-8.8 -73,-16.4 v 39 c 19.2,9.4 51,14.8 80.2,14.8 57.2,0 95.6,-30.8 95.6,-80.8 0,-53.2 -42.8,-70.4 -80.2,-82.4 -34.2,-11.4 -48.4,-20.2 -48.4,-41.6 z M 703.2,230.8 c 0,-17 -14.2,-30.8 -31.4,-30.8 -17.6,0 -31.4,13.8 -31.4,30.8 0,17 13.8,30.8 31.4,30.8 17,0 31.4,-13.6 31.4,-30.8 z M 580.6,350 c 12,0 21.4,2.2 28,3.8 v -43.2 c -6.6,-1.6 -16,-3.2 -23,-3.2 -29.6,0 -51.6,13.8 -67,32.4 v -28 h -47.2 v 268 h 47.2 V 374.2 c 14.6,-12.6 30.6,-24.2 62,-24.2 z M 364.8,579.6 h 46.6 V 402.2 c 0,-55.4 -22.6,-95 -85.6,-95 -33.6,0 -61,12 -83.4,28 -13.2,-17 -35.2,-28 -60.4,-28 -35.2,0 -62,14.8 -76.4,25.8 V 311.6 H 59 v 268 h 47 V 365.4 c 13.8,-9.4 33.6,-19.2 53.8,-19.2 33.6,0 52.2,17.6 52.2,61 v 172.4 h 46.6 V 397.8 c 0,-15.4 -2.8,-28.6 -5,-35.8 12.6,-6.6 34.6,-16 56,-16 45,0 55,25.8 55,63.8 V 579.6 Z M -72.6,601 26.4,311.6 h -47.8 l -64.2,208.8 h -1.2 l -73,-208.8 h -50 l 98.4,268.6 -2.4,7.6 c -7.6,25.8 -21.4,46.2 -51,46.2 -9.8,0 -22,-1.6 -29.6,-3.8 V 667 c 10.4,3.2 18.6,4.4 33.6,4.4 48.8,0 71.2,-21.6 88.2,-70.4 z M -352.8,379.2 c 0,-22 16,-34.6 48.8,-34.6 25.8,0 51,8.2 64.2,14.2 v -39.6 c -12.6,-5.4 -37.8,-12 -66,-12 -55.4,0 -92.8,23.6 -92.8,75.8 0,42.2 28.6,63.2 72.6,78 37.4,13.2 55,19.2 55,45 0,28 -19.2,40.6 -56,40.6 -24.8,0 -56,-8.8 -73,-16.4 v 39 c 19.2,9.4 51,14.8 80.2,14.8 57.2,0 95.6,-30.8 95.6,-80.8 0,-53.2 -42.8,-70.4 -80.2,-82.4 -34,-11.4 -48.4,-20.2 -48.4,-41.6 z M 695.4,311.6 h -47.2 v 268 h 47.2 z"
   id="path2"
   style="stroke-width:2" />
</svg>
